<?xml version="1.0" encoding="UTF-8"?>
<svg width="361.5" height="132.4" enable-background="new 0 0 836.2 595.3" version="1.1" viewBox="0 0 361.5 132.4" xml:space="preserve" xmlns="http://www.w3.org/2000/svg" xmlns:cc="http://creativecommons.org/ns#" xmlns:dc="http://purl.org/dc/elements/1.1/" xmlns:rdf="http://www.w3.org/1999/02/22-rdf-syntax-ns#"><metadata><rdf:RDF><cc:Work rdf:about=""><dc:format>image/svg+xml</dc:format><dc:type rdf:resource="http://purl.org/dc/dcmitype/StillImage"/><dc:title/></cc:Work></rdf:RDF></metadata>
<line x2="361.5" y1="131.4" y2="131.4" fill="none" stroke="#3a515b" stroke-miterlimit="10" stroke-width="2"/>
<line x1="136.5" x2="360.6" y1="51.3" y2="51.3" fill="none" stroke="#3a515b" stroke-miterlimit="10" stroke-width="2"/>
<rect x="91.3" width="31.3" height="78.5" fill="#93181f"/>
<g transform="translate(-237.5,-232.2)">
	<polygon points="269.8 261.4 269.8 310.7 293.1 310.7 293.1 254.1 261.8 254.1 261.8 261.4" fill="#3a515b"/>
	<rect x="238.1" y="261.4" width="23.6" height="49.3" fill="#313737"/>
	<rect x="261.8" y="261.4" width="8" height="49.3" fill="#3a515b"/>
	<rect x="261.8" y="261.4" width="8" height="49.3" fill="#1f1814"/>
</g>
<rect x="46.9" y="15.2" width="31" height="63.3" fill="#7f929c"/>
<rect x="69.3" y="7.7" width="30.7" height="70.8" fill="#baaab7"/>
<rect x="91.3" y="111.9" width="31.3" height="12.1" fill="#93181f"/>
<g transform="translate(-237.5,-232.2)">
	<polygon points="261.8 356.1 261.8 356.1 293.1 356.1 293.1 344.1 269.8 344.1 269.8 356.1" fill="#3a515b"/>
	<rect x="238.1" y="344.1" width="23.6" height="12.1" fill="#313737"/>
	<rect x="261.8" y="344.1" width="8" height="12.1" fill="#3a515b"/>
	<rect x="261.8" y="344.1" width="8" height="12.1" fill="#1f1814"/>
</g>
<rect x="46.9" y="111.9" width="31" height="12.1" fill="#7f929c"/>
<rect x="69.3" y="111.9" width="30.7" height="12.1" fill="#baaab7"/>
<g transform="translate(-237.5,-232.2)" fill="#3a515b">
	<path d="m378 293.3c3.5 0 4.9 1.9 4.9 4.2 0 1.6-0.7 3-2.9 3.8v0.1c2 0.4 3.3 2 3.3 3.9 0 4.6-4.7 4.7-5.5 4.7h-4.3v-16.6h4.5zm-2.8 7.3h2.7c2.2 0 3.4-1.4 3.4-3.2 0-2-1.5-2.8-3.3-2.8h-2.7v6zm0 7.9h2.5c1.4 0 4-0.3 4-3.3 0-2.1-1.6-3.3-3.8-3.3h-2.7z"/>
	<path d="m388.3 293.3v6.8h2.7c1 0 5.9 0 5.9 4.9 0 2.6-2 4.9-5.1 4.9h-5v-16.6zm0 15.2h3c2.7 0 3.9-1.7 3.9-3.5 0-3.3-2.9-3.6-4.3-3.6h-2.6zm12.8-15.2v16.6h-1.6v-16.6z"/>
	<path d="m416.8 309.4c-1 0.3-2.4 0.6-4.2 0.6-5.8 0-8.3-4-8.3-8.2 0-4.4 2.4-8.8 8.5-8.8 1.5 0 2.6 0.2 3.8 0.6l-0.1 1.4c-1.8-0.7-3.3-0.7-3.8-0.7-4.2 0-6.7 3.3-6.7 7.4 0 4.3 2.9 6.9 6.5 6.9 1.5 0 3-0.3 4.3-0.8z"/>
	<path d="m430.2 293.3v15.3h7.5v-15.3h1.6v16.6h-19.7v-16.6h1.6v15.3h7.5v-15.3z"/>
	<path d="m450.5 293.3 6.6 16.6h-1.7l-1.8-4.6h-8.2l-1.8 4.6h-1.7l6.6-16.6zm-1.1 1.5-0.5 1.6-3 7.6h7.2l-3-7.6z"/>
	<path d="m469.8 309.9h-1.6v-7.1h-3.3l-3.7 7.1h-1.9l4-7.4c-2.1-0.6-3.3-2.4-3.3-4.4 0-2.5 1.6-4.8 5.2-4.8h4.7v16.6zm-1.6-15.3h-3.2c-2.1 0-3.3 1.5-3.3 3.4 0 2.3 1.7 3.4 3.3 3.4h3.2z"/>
	<path d="m490.7 293.3v15.3h7.5v-15.3h1.6v16.6h-19.7v-16.6h1.6v15.3h7.5v-15.3z"/>
	<path d="m505.5 293.3v7.6l7.7-7.7h2l-8.1 7.9 9 8.8h-2.2l-8-8-0.4-0.5v8.4h-1.6v-16.6h1.6z"/>
	<path d="m523.9 293.1c5.1 0 7.5 4.1 7.5 8.5 0 5.5-3.3 8.5-7.5 8.5s-7.5-3-7.5-8.5c0-4.5 2.4-8.5 7.5-8.5zm0 15.6c2.9 0 5.8-2.1 5.8-7.1s-2.9-7.2-5.8-7.2-5.8 2.2-5.8 7.2 2.9 7.1 5.8 7.1z"/>
	<path d="m545.2 293.3v16.6h-1.6v-15.3h-6.4v4.4c0 5.7 0.1 11.1-3.9 11.1-0.2 0-0.7 0-1.2-0.2l0.1-1.3c0.3 0.1 0.7 0.1 0.9 0.1 2.9 0 2.4-7 2.4-9.8v-5.7h9.7z"/>
	<path d="m556.4 293.3 6.6 16.6h-1.7l-1.8-4.6h-8.2l-1.8 4.6h-1.7l6.6-16.6zm-1 1.5-0.5 1.6-3 7.6h7.2l-3-7.6z"/>
	<path d="m377.1 319.9c3.4 0 5 2.9 5 6.1 0 4-2.2 6.1-5 6.1s-5-2.2-5-6.1c0-3.2 1.6-6.1 5-6.1zm0 11.2c1.9 0 3.9-1.5 3.9-5.1s-2-5.2-3.9-5.2-3.9 1.6-3.9 5.2 2 5.1 3.9 5.1z"/>
	<path d="m387.3 320c2.1 0 3.3 1.4 3.3 3.5s-1.3 3.5-3.3 3.5h-1.8v5.1h-1.1v-12h2.9zm-1.9 5.9h1.6c0.6 0 2.4-0.1 2.4-2.5 0-2.5-2.1-2.5-2.4-2.5h-1.6z"/>
	<path d="m398.3 320v1h-4.7v11h-1.1v-12z"/>
	<path d="m403.1 320 4.4 12h-1.1l-1.2-3.3h-5.5l-1.2 3.3h-1.1l4.4-12zm-0.7 1.1-2.4 6.6h4.8l-2-5.5z"/>
	<path d="m410.4 320v5.3h5.8v-5.3h1.1v12h-1.1v-5.7h-5.8v5.7h-1.1v-12z"/>
	<path d="m421.1 320v9l-0.1 1.5 0.6-1.2 5.4-9.2h1.2v12h-1.1v-9l0.1-1.5-0.6 1.1-5.4 9.3h-1.2v-12z"/>
	<path d="m431.8 325.2h1.3c2.2 0 2.6-1.3 2.6-2.4 0-1.3-1.1-2-2.6-2-0.9 0-1.8 0.3-2.7 0.7l-0.1-1.1c0.9-0.4 1.8-0.6 2.8-0.6 0.4 0 3.7-0.1 3.7 3 0 1.4-0.7 2.4-1.8 2.8 1.4 0.3 2.2 1.5 2.2 3.1 0 2.3-2.2 3.3-4.1 3.3-1.2 0-2.2-0.3-3-0.8l0.1-1.1c0.8 0.5 1.9 0.8 2.9 0.8 1.8 0 3-1 3-2.4 0-1.6-1-2.5-2.9-2.5h-1.4z"/>
	<path d="m443.9 320 4.4 12h-1.1l-1.2-3.3h-5.5l-1.2 3.3h-1.1l4.4-12zm-0.7 1.1-2.4 6.6h4.8l-2-5.5z"/>
	<path d="m451.1 320v11h5.9v-11h1v11h1.3v3.6h-1.1v-2.6h-8.2v-12z"/>
	<path d="m462.4 320v9l-0.1 1.5 0.6-1.2 5.4-9.2h1.2v12h-1v-9l0.1-1.5-0.6 1.1-5.4 9.3h-1.2v-12z"/>
	<path d="m473.4 320v9l-0.1 1.5 0.6-1.2 5.4-9.2h1.2v12h-1v-9l0.1-1.5-0.6 1.1-5.4 9.3h-1.2v-12z"/>
	<path d="m488.6 320v9l-0.1 1.5 0.6-1.2 5.4-9.2h1.2v12h-1v-9l0.1-1.5-0.6 1.1-5.4 9.3h-1.2v-12z"/>
	<path d="m502.7 320 2.9 6.4 0.6 1.5 0.5-1.4 2.5-6.4h1.1l-3.9 10.1c-0.4 1-0.8 2-2.1 2-0.4 0-0.7-0.1-1.1-0.2v-1c0.3 0.2 0.6 0.2 0.9 0.2 0.6 0 0.9-0.4 1.2-1.4l0.3-0.7-4.1-9.1z"/>
	<path d="m520.1 320v12h-1v-11h-5.8v11h-1v-12z"/>
	<path d="m525.8 320c2.1 0 3.3 1.4 3.3 3.5s-1.3 3.5-3.3 3.5h-1.8v5.1h-1v-12h2.8zm-1.8 5.9h1.6c0.6 0 2.4-0.1 2.4-2.5 0-2.5-2.1-2.5-2.4-2.5h-1.6z"/>
	<path d="m534.8 320 4.4 12h-1.1l-1.2-3.3h-5.5l-1.2 3.3h-1.1l4.4-12zm-0.7 1.1-2.4 6.6h4.8l-2-5.5z"/>
	<path d="m544 320c2.3 0 3.3 1.4 3.3 3 0 1.1-0.5 2.2-1.9 2.7v0.1c1.3 0.3 2.2 1.4 2.2 2.8 0 3.3-3.2 3.4-3.7 3.4h-2.9v-12zm-1.9 5.3h1.8c1.5 0 2.3-1 2.3-2.3 0-1.5-1-2.1-2.2-2.1h-1.8v4.4zm0 5.7h1.7c0.9 0 2.7-0.2 2.7-2.4 0-1.5-1.1-2.3-2.6-2.3h-1.8z"/>
	<path d="m557.5 320v12h-1.1v-11h-4.3v3.2c0 4.1 0 8-2.6 8-0.2 0-0.4 0-0.8-0.1l0.1-0.9c0.2 0.1 0.5 0.1 0.6 0.1 1.9 0 1.6-5.1 1.6-7v-4.3z"/>
	<path d="m565.7 320v1h-4.4v4.3h4.2v1h-4.2v4.7h4.7v1h-5.7v-12z"/>
	<path d="m569.1 320v5.3h5.8v-5.3h1.1v12h-1.1v-5.7h-5.8v5.7h-1v-12z"/>
	<path d="m579.8 320v9l-0.1 1.5 0.6-1.2 5.4-9.2h1.2v12h-1v-9l0.1-1.5-0.6 1.1-5.4 9.3h-1.2v-12z"/>
	<path d="m596.2 332h-1v-5.1h-2.2l-2.5 5.1h-1.3l2.7-5.3c-1.4-0.5-2.2-1.7-2.2-3.2 0-1.8 1.1-3.5 3.5-3.5h3.1v12zm-1.1-11h-2.1c-1.4 0-2.2 1.1-2.2 2.5 0 1.6 1.1 2.4 2.2 2.4h2.2v-4.9z"/>
	<path d="m373.2 347.3h1.3c2.2 0 2.6-1.3 2.6-2.4 0-1.3-1.1-2-2.6-2-0.9 0-1.8 0.3-2.7 0.7l-0.1-1.1c0.9-0.4 1.8-0.6 2.8-0.6 0.4 0 3.7-0.1 3.7 3 0 1.4-0.7 2.4-1.8 2.8 1.4 0.3 2.2 1.5 2.2 3.1 0 2.3-2.2 3.3-4.1 3.3-1.2 0-2.2-0.3-3-0.8l0.1-1.1c0.8 0.5 1.9 0.8 2.9 0.8 1.8 0 3-1 3-2.4 0-1.6-1-2.5-2.9-2.5h-1.4z"/>
	<path d="m388.5 342.1v11h1.3v3.6h-1.1v-2.6h-8.1v2.6h-1.1v-3.6h0.9c1.6-2.6 1.6-4.7 1.6-7.7v-3.3zm-5.3 1v2.4c0 2.6 0.1 4.8-1.4 7.6h5.7v-10z"/>
	<path d="m394.6 342.1c2.1 0 3.3 1.4 3.3 3.5s-1.3 3.5-3.3 3.5h-1.8v5.1h-1.1v-12h2.9zm-1.8 5.9h1.6c0.6 0 2.4-0.1 2.4-2.5 0-2.5-2.1-2.5-2.4-2.5h-1.6z"/>
	<path d="m403.7 342.1 4.4 12h-1.1l-1.2-3.3h-5.5l-1.2 3.3h-1.1l4.4-12zm-0.7 1.1-2.4 6.6h4.8l-2-5.5z"/>
	<path d="m412.8 342.1c2.3 0 3.3 1.4 3.3 3 0 1.1-0.5 2.2-1.9 2.7v0.1c1.3 0.3 2.2 1.4 2.2 2.8 0 3.3-3.2 3.4-3.7 3.4h-2.9v-12zm-1.9 5.3h1.8c1.5 0 2.3-1 2.3-2.3 0-1.5-1-2.1-2.2-2.1h-1.8v4.4zm0 5.7h1.7c0.9 0 2.7-0.2 2.7-2.4 0-1.5-1.1-2.3-2.6-2.3h-1.8z"/>
	<path d="m423.2 342c3.4 0 5 2.9 5 6.1 0 4-2.2 6.1-5 6.1s-5-2.2-5-6.1c-0.1-3.2 1.6-6.1 5-6.1zm0 11.2c1.9 0 3.9-1.5 3.9-5.1s-2-5.2-3.9-5.2-3.9 1.6-3.9 5.2c-0.1 3.6 1.9 5.1 3.9 5.1z"/>
	<path d="m435 342c3.4 0 5 2.9 5 6.1 0 4-2.2 6.1-5 6.1s-5-2.2-5-6.1c-0.1-3.2 1.6-6.1 5-6.1zm0 11.2c1.9 0 3.9-1.5 3.9-5.1s-2-5.2-3.9-5.2-3.9 1.6-3.9 5.2 1.9 5.1 3.9 5.1z"/>
	<path d="m442 342.1 2.9 4.3 0.4 0.6 0.4-0.6 2.8-4.3h1.2l-3.8 5.6 4.2 6.3h-1.3l-2.9-4.4-0.7-1.1-0.7 1.2-2.8 4.3h-1.3l4.1-6.3-3.9-5.6z"/>
	<path d="m454.7 342.1c2.1 0 3.3 1.4 3.3 3.5s-1.3 3.5-3.3 3.5h-1.8v5.1h-1v-12h2.8zm-1.8 5.9h1.6c0.6 0 2.4-0.1 2.4-2.5 0-2.5-2.1-2.5-2.4-2.5h-1.6z"/>
	<path d="m463.8 342.1 4.4 12h-1.1l-1.2-3.3h-5.5l-1.2 3.3h-1.2l4.4-12zm-0.7 1.1-2.4 6.6h4.8l-2-5.5z"/>
	<path d="m471 342.1v5.3h5.8v-5.3h1.1v12h-1.1v-5.7h-5.8v5.7h-1v-12z"/>
	<path d="m486.1 342.1v1h-4.4v4.3h4.2v1h-4.2v4.7h4.7v1h-5.7v-12z"/>
	<path d="m489.5 342.1v5.3h5.8v-5.3h1.1v12h-1.1v-5.7h-5.8v5.7h-1v-12z"/>
	<path d="m500.2 342.1v9l-0.1 1.5 0.6-1.2 5.4-9.2h1.2v12h-1v-9l0.1-1.5-0.6 1.1-5.4 9.3h-1.2v-12z"/>
	<path d="m515.6 342.1v1h-4.4v4.3h4.2v1h-4.2v4.7h4.7v1h-5.7v-12z"/>
	<path d="m523.8 353 0.5-1.6 3.7-9.3h1.7v12h-1v-10.9h-0.1l-0.5 1.6-3.7 9.3h-1.1l-3.7-9.3-0.5-1.6h-0.1v10.9h-1v-12h1.7l3.7 9.3z"/>
</g>
<g transform="translate(-237.5,-232.2)" fill="#3a515b">
	<path d="m244.9 315.7c5.1 0 7.2 2.8 7.2 6.1 0 2.3-1 4.5-4.2 5.5v0.1c2.9 0.6 4.9 2.9 4.9 5.8 0 6.8-6.9 6.9-8.1 6.9h-6.3v-24.4zm-4.3 10.8h3.9c3.2 0 5-2 5-4.6 0-3-2.2-4.2-4.9-4.2h-4zm0 11.6h3.7c2.1 0 5.9-0.4 5.9-4.9 0-3-2.4-4.8-5.7-4.8h-3.9z"/>
	<path d="m275.4 315.7v22.5h11v-22.5h2.3v24.4h-29v-24.4h2.3v22.5h11v-22.5z"/>
	<path d="m306.7 315.4c7.5 0 11.1 6 11.1 12.5 0 8.1-4.9 12.5-11.1 12.5s-11.1-4.4-11.1-12.5c0-6.6 3.6-12.5 11.1-12.5zm0 23c4.3 0 8.6-3.1 8.6-10.5 0-7.3-4.3-10.5-8.6-10.5s-8.6 3.2-8.6 10.5 4.3 10.5 8.6 10.5z"/>
	<path d="m323.8 315.7 6.3 13 1.3 3.1h0.1l1.1-2.9 5.4-13.1h2.5l-8.7 20.6c-0.9 2.1-1.7 4.2-4.7 4.2-0.8 0-1.6-0.1-2.5-0.4l0.1-2c0.7 0.3 1.4 0.4 2.1 0.4 1.3 0 1.9-0.8 2.7-2.8l0.6-1.5-8.9-18.5h2.6z"/>
	<path d="m348.6 326.3h2.9c4.8 0 5.8-2.6 5.8-4.9 0-2.7-2.4-4.1-5.7-4.1-2 0-4 0.6-5.9 1.4l-0.2-2.2c2-0.7 3.9-1.2 6-1.2 0.8 0 8.2-0.2 8.2 6.1 0 2.9-1.4 5-4 5.7v0.1c3.2 0.6 4.8 3.1 4.8 6.4 0 4.8-4.8 6.7-9 6.7-2.7 0-4.9-0.7-6.6-1.5l0.3-2.2c1.8 1 4.1 1.7 6.3 1.7 3.8 0 6.6-2 6.6-5 0-3.2-2.3-5.1-6.5-5.1h-3z"/>
</g>
</svg>
